<svg width="658" height="202" viewBox="0 0 658 202" fill="none" xmlns="http://www.w3.org/2000/svg">
<g clip-path="url(#clip0_1029_85)">
<path d="M124.6 107.14C124.6 140.41 101.24 167.55 71.74 167.55C56.87 167.55 45.54 161.65 37.76 151.03V157.15C37.76 161.59 34.16 165.19 29.72 165.19H8.04C3.6 165.19 0 161.59 0 157.15V8.04C0 3.6 3.6 0 8.04 0H29.72C34.16 0 37.76 3.6 37.76 8.04V63.01C45.55 52.39 56.88 46.49 71.74 46.49C101.24 46.49 124.6 73.87 124.6 107.14ZM62.66 82.83C49.32 82.83 38.51 93.64 38.51 106.98C38.51 120.32 49.32 131.13 62.66 131.13C76 131.13 86.81 120.32 86.81 106.98C86.81 93.64 76 82.83 62.66 82.83Z" fill="#8F0A82"/>
<path d="M215.99 106.98C215.99 120.32 205.18 131.13 191.84 131.13C178.5 131.13 167.69 120.32 167.69 106.98C167.69 93.6402 178.5 82.8302 191.84 82.8302C205.18 82.8302 215.99 93.6402 215.99 106.98ZM191.84 46.4902C158.43 46.4902 131.35 73.5702 131.35 106.98C131.35 140.39 158.43 167.47 191.84 167.47C225.25 167.47 252.33 140.39 252.33 106.98C252.33 73.5702 225.25 46.4902 191.84 46.4902Z" fill="#8F0A82"/>
<path d="M621 106.98C621 120.32 610.19 131.13 596.85 131.13C583.51 131.13 572.7 120.32 572.7 106.98C572.7 93.6402 583.51 82.8302 596.85 82.8302C610.19 82.8302 621 93.6402 621 106.98ZM596.85 46.4902C563.44 46.4902 536.36 73.5702 536.36 106.98C536.36 140.39 563.44 167.47 596.85 167.47C630.26 167.47 657.34 140.39 657.34 106.98C657.34 73.5702 630.26 46.4902 596.85 46.4902Z" fill="#8F0A82"/>
<path d="M335.68 46.4902C320.81 46.4902 309.48 52.3902 301.7 63.0102V56.8902C301.7 52.4502 298.1 48.8502 293.66 48.8502H271.98C267.54 48.8502 263.94 52.4502 263.94 56.8902V193.97C263.94 198.41 267.54 202.01 271.98 202.01H293.66C298.1 202.01 301.7 198.41 301.7 193.97V151.04C309.49 161.66 320.82 167.56 335.68 167.56C365.18 167.56 388.54 140.42 388.54 107.15C388.54 73.8802 365.18 46.5002 335.68 46.5002V46.4902ZM326.6 131.13C313.26 131.13 302.45 120.32 302.45 106.98C302.45 93.6402 313.26 82.8302 326.6 82.8302C339.94 82.8302 350.75 93.6402 350.75 106.98C350.75 120.32 339.94 131.13 326.6 131.13Z" fill="#8F0A82"/>
<path d="M471.89 46.4902C457.02 46.4902 445.69 52.3902 437.91 63.0102V56.8902C437.91 52.4502 434.31 48.8502 429.87 48.8502H408.19C403.75 48.8502 400.15 52.4502 400.15 56.8902V193.97C400.15 198.41 403.75 202.01 408.19 202.01H429.87C434.31 202.01 437.91 198.41 437.91 193.97V151.04C445.7 161.66 457.03 167.56 471.89 167.56C501.39 167.56 524.75 140.42 524.75 107.15C524.75 73.8802 501.39 46.5002 471.89 46.5002V46.4902ZM462.81 131.13C449.47 131.13 438.66 120.32 438.66 106.98C438.66 93.6402 449.47 82.8302 462.81 82.8302C476.15 82.8302 486.96 93.6402 486.96 106.98C486.96 120.32 476.15 131.13 462.81 131.13Z" fill="#8F0A82"/>
</g>
<defs>
<clipPath id="clip0_1029_85">
<rect width="657.34" height="202.01" fill="white"/>
</clipPath>
</defs>
</svg>
