<?xml version="1.0" encoding="UTF-8"?>
<!-- Generator: Adobe Illustrator 26.0.2, SVG Export Plug-In . SVG Version: 6.00 Build 0)  -->
<svg version="1.1" id="Layer_1" xmlns="http://www.w3.org/2000/svg" xmlns:xlink="http://www.w3.org/1999/xlink" x="0px" y="0px" viewBox="0 0 1100 350" style="enable-background:new 0 0 1100 350;" xml:space="preserve">
<style type="text/css">
	.st0{fill:#C1272D;}
	.st1{fill:#009245;}
	.st2{fill:#ED1E79;}
	.st3{fill:#662D91;}
	.st4{fill:#29ABE2;}
	.st5{fill:#FBB03B;}
	.st6{fill:#093A7A;}
	.st7{fill:#F15A24;}
</style>
<g>
	<g>
		<g>
			<path class="st0" d="M190.66,34.55C113.09,34.55,50.21,97.43,50.21,175c0,77.57,62.88,140.45,140.45,140.45     S331.12,252.57,331.12,175C331.12,97.43,268.23,34.55,190.66,34.55z M143.41,244.12h-26.94V129.09h-19.9v-23.21h46.84V244.12z      M231.29,247.23c-27.56,0-53.47-24.66-53.47-72.33c0-47.46,25.91-72.12,53.47-72.12c27.56,0,53.47,24.66,53.47,72.33     C284.76,222.56,258.85,247.23,231.29,247.23z"/>
			<path class="st0" d="M231.29,125.98c-11.61,0-26.53,13.06-26.53,48.91c0,36.06,14.71,49.12,26.53,49.12     c11.81,0,26.53-13.06,26.53-49.12C257.81,139.04,242.89,125.98,231.29,125.98z"/>
		</g>
	</g>
	<path class="st1" d="M381.39,244.12V112.18h49c23.45,0,39.2,9.1,39.2,34.29c0,11.9-3.85,21.53-14.52,26.95v0.35   c18.9,2.45,26.95,15.22,26.95,33.6c0,27.65-23.62,36.75-47.77,36.75H381.39z M415.69,163.97h3.85c9.1,0,18.55-1.57,18.55-12.77   c0-12.07-10.67-12.77-19.95-12.77h-2.45V163.97z M415.69,217.87h4.37c10.15,0,27.3,0.53,27.3-14c0-15.92-16.97-14.35-28.17-14.35   h-3.5V217.87z"/>
	<path class="st2" d="M530.48,154.35v47.94c0,11.37,2.8,19.42,15.92,19.42c13.12,0,15.92-8.05,15.92-19.42v-47.94h31.85v54.07   c0,29.57-20.82,38.67-47.77,38.67s-47.77-9.1-47.77-38.67v-54.07H530.48z"/>
	<path class="st3" d="M649.3,244.12h-31.85V180.6h-10.33v-26.25h10.33V127.4h31.85v26.95h18.02v26.25H649.3V244.12z"/>
	<path class="st4" d="M717.9,244.12h-31.85V180.6h-10.33v-26.25h10.33V127.4h31.85v26.95h18.02v26.25H717.9V244.12z"/>
	<path class="st5" d="M847.57,199.32c0,30.45-25.2,47.77-54.07,47.77c-28.7,0-54.07-17.15-54.07-47.77s25.2-47.94,54.07-47.94   C822.37,151.38,847.57,168.7,847.57,199.32z M773.02,199.32c0,11.37,7.53,20.12,20.48,20.12c12.95,0,20.47-8.75,20.47-20.12   c0-11.02-7.53-20.3-20.47-20.3C780.55,179.02,773.02,188.3,773.02,199.32z"/>
	<path class="st6" d="M893.77,165.9h0.35c7.35-10.85,16.27-14.52,28.7-14.52c24.15,0,33.77,15.22,33.77,37.27v55.47h-31.85v-43.75   c0-8.58,1.4-23.62-14.35-23.62c-12.95,0-16.62,9.62-16.62,20.82v46.55h-31.85v-89.77h31.85V165.9z"/>
	<path class="st7" d="M1036.91,177.45c-4.9-2.63-11.72-4.37-17.15-4.37c-3.68,0-9.98,1.57-9.98,6.12c0,6.12,9.98,7,14.35,7.87   c14.87,2.98,26.07,9.97,26.07,26.6c0,23.62-21.52,33.42-42.35,33.42c-12.77,0-25.37-3.67-36.22-10.32l11.55-22.22   c6.47,4.55,17.32,9.1,25.2,9.1c4.02,0,9.97-1.93,9.97-6.83c0-7-9.97-7.35-19.95-9.97c-9.97-2.63-19.95-7.53-19.95-23.62   c0-22.05,19.95-31.85,39.55-31.85c10.15,0,20.3,1.57,29.57,5.77L1036.91,177.45z"/>
</g>
</svg>