<?xml version="1.0" encoding="UTF-8" standalone="no"?>
<!-- Generator: Adobe Illustrator 26.0.2, SVG Export Plug-In . SVG Version: 6.00 Build 0)  -->

<svg
   version="1.1"
   id="Layer_1"
   x="0px"
   y="0px"
   viewBox="0 0 350 350"
   xml:space="preserve"
   sodipodi:docname="logo_10.svg"
   width="350"
   height="350"
   inkscape:version="1.2.2 (b0a8486541, 2022-12-01)"
   xmlns:inkscape="http://www.inkscape.org/namespaces/inkscape"
   xmlns:sodipodi="http://sodipodi.sourceforge.net/DTD/sodipodi-0.dtd"
   xmlns="http://www.w3.org/2000/svg"
   xmlns:svg="http://www.w3.org/2000/svg"><defs
   id="defs104">
	
	
	
	
	
	
	
	
</defs><sodipodi:namedview
   id="namedview102"
   pagecolor="#ffffff"
   bordercolor="#000000"
   borderopacity="0.25"
   inkscape:showpageshadow="2"
   inkscape:pageopacity="0.0"
   inkscape:pagecheckerboard="0"
   inkscape:deskcolor="#d1d1d1"
   showgrid="false"
   inkscape:zoom="2.2102602"
   inkscape:cx="188.21313"
   inkscape:cy="209.70381"
   inkscape:window-width="2256"
   inkscape:window-height="1427"
   inkscape:window-x="0"
   inkscape:window-y="0"
   inkscape:window-maximized="1"
   inkscape:current-layer="Layer_1" />
<style
   type="text/css"
   id="style75">
	.st0{fill:#C1272D;}
	.st1{fill:#009245;}
	.st2{fill:#ED1E79;}
	.st3{fill:#662D91;}
	.st4{fill:#29ABE2;}
	.st5{fill:#FBB03B;}
	.st6{fill:#093A7A;}
	.st7{fill:#F15A24;}
</style>
<g
   id="g83"
   transform="translate(-14.969538,3.1966234)">
		<g
   id="g81">
			<path
   class="st0"
   d="M 190.66,34.55 C 113.09,34.55 50.21,97.43 50.21,175 c 0,77.57 62.88,140.45 140.45,140.45 77.57,0 140.46,-62.88 140.46,-140.45 0,-77.57 -62.89,-140.45 -140.46,-140.45 z M 143.41,244.12 H 116.47 V 129.09 h -19.9 v -23.21 h 46.84 z m 87.88,3.11 c -27.56,0 -53.47,-24.66 -53.47,-72.33 0,-47.46 25.91,-72.12 53.47,-72.12 27.56,0 53.47,24.66 53.47,72.33 0,47.45 -25.91,72.12 -53.47,72.12 z"
   id="path77" />
			<path
   class="st0"
   d="m 231.29,125.98 c -11.61,0 -26.53,13.06 -26.53,48.91 0,36.06 14.71,49.12 26.53,49.12 11.81,0 26.53,-13.06 26.53,-49.12 -0.01,-35.85 -14.93,-48.91 -26.53,-48.91 z"
   id="path79" />
		</g>
	</g>
</svg>
